%TF.GenerationSoftware,KiCad,Pcbnew,8.0.2-1*%
%TF.CreationDate,2024-10-03T17:15:38-04:00*%
%TF.ProjectId,lightPixel,6c696768-7450-4697-9865-6c2e6b696361,rev?*%
%TF.SameCoordinates,Original*%
%TF.FileFunction,Copper,L2,Bot*%
%TF.FilePolarity,Positive*%
%FSLAX46Y46*%
G04 Gerber Fmt 4.6, Leading zero omitted, Abs format (unit mm)*
G04 Created by KiCad (PCBNEW 8.0.2-1) date 2024-10-03 17:15:38*
%MOMM*%
%LPD*%
G01*
G04 APERTURE LIST*
%TA.AperFunction,SMDPad,CuDef*%
%ADD10R,1.500000X0.900000*%
%TD*%
%TA.AperFunction,ViaPad*%
%ADD11C,0.600000*%
%TD*%
%TA.AperFunction,Conductor*%
%ADD12C,0.500000*%
%TD*%
G04 APERTURE END LIST*
D10*
%TO.P,D1,1,VDD*%
%TO.N,+5V*%
X-2450000Y-1650000D03*
%TO.P,D1,2,DOUT*%
%TO.N,unconnected-(D1-DOUT-Pad2)*%
X-2450000Y1650000D03*
%TO.P,D1,3,VSS*%
%TO.N,GND*%
X2450000Y1650000D03*
%TO.P,D1,4,DIN*%
%TO.N,Net-(D1-DIN)*%
X2450000Y-1650000D03*
%TD*%
D11*
%TO.N,+5V*%
X0Y-2500000D03*
%TO.N,Net-(D1-DIN)*%
X3750000Y-1750000D03*
%TO.N,GND*%
X3250000Y250000D03*
%TD*%
D12*
%TO.N,+5V*%
X0Y-2500000D02*
X-850000Y-1650000D01*
X-850000Y-1650000D02*
X-2450000Y-1650000D01*
%TO.N,Net-(D1-DIN)*%
X2550000Y-1750000D02*
X2450000Y-1650000D01*
X3750000Y-1750000D02*
X2550000Y-1750000D01*
%TD*%
%TA.AperFunction,Conductor*%
%TO.N,GND*%
G36*
X308446Y9494364D02*
G01*
X908198Y9455859D01*
X916110Y9455096D01*
X1512180Y9378240D01*
X1520027Y9376971D01*
X2109925Y9262089D01*
X2117674Y9260321D01*
X2699029Y9107872D01*
X2706649Y9105610D01*
X3277016Y8916235D01*
X3284476Y8913490D01*
X3841555Y8687954D01*
X3848824Y8684736D01*
X4390294Y8423977D01*
X4397341Y8420301D01*
X4921012Y8125376D01*
X4927809Y8121255D01*
X5431488Y7793396D01*
X5438008Y7788848D01*
X5919659Y7429382D01*
X5925873Y7424426D01*
X6383488Y7034853D01*
X6389373Y7029509D01*
X6821110Y6611395D01*
X6826639Y6605685D01*
X7230675Y6160797D01*
X7235828Y6154745D01*
X7610555Y5684852D01*
X7615309Y5678481D01*
X7959134Y5185582D01*
X7963471Y5178921D01*
X8275035Y4664963D01*
X8278935Y4658037D01*
X8556914Y4125204D01*
X8560363Y4118042D01*
X8803636Y3568485D01*
X8806619Y3561117D01*
X9014178Y2997110D01*
X9016683Y2989567D01*
X9187688Y2413396D01*
X9189704Y2405707D01*
X9323434Y1819797D01*
X9324954Y1811994D01*
X9420875Y1218688D01*
X9421891Y1210805D01*
X9479600Y612588D01*
X9480109Y604655D01*
X9499372Y3974D01*
X9499372Y-3974D01*
X9480109Y-604655D01*
X9479600Y-612588D01*
X9421891Y-1210805D01*
X9420875Y-1218688D01*
X9324954Y-1811994D01*
X9323434Y-1819797D01*
X9189704Y-2405707D01*
X9187688Y-2413396D01*
X9016683Y-2989567D01*
X9014178Y-2997110D01*
X8806619Y-3561117D01*
X8803636Y-3568485D01*
X8560363Y-4118042D01*
X8556914Y-4125204D01*
X8278935Y-4658037D01*
X8275035Y-4664963D01*
X7963471Y-5178921D01*
X7959134Y-5185582D01*
X7615309Y-5678481D01*
X7610555Y-5684852D01*
X7235828Y-6154745D01*
X7230675Y-6160797D01*
X6826639Y-6605685D01*
X6821110Y-6611395D01*
X6389373Y-7029509D01*
X6383488Y-7034853D01*
X5925873Y-7424426D01*
X5919659Y-7429382D01*
X5438008Y-7788848D01*
X5431488Y-7793396D01*
X4927809Y-8121255D01*
X4921012Y-8125376D01*
X4397341Y-8420301D01*
X4390294Y-8423977D01*
X3848824Y-8684736D01*
X3841555Y-8687954D01*
X3284476Y-8913490D01*
X3277016Y-8916235D01*
X2706649Y-9105610D01*
X2699029Y-9107872D01*
X2117674Y-9260321D01*
X2109925Y-9262089D01*
X1520027Y-9376971D01*
X1512180Y-9378240D01*
X916110Y-9455096D01*
X908198Y-9455859D01*
X308446Y-9494364D01*
X300501Y-9494619D01*
X-300501Y-9494619D01*
X-308446Y-9494364D01*
X-908198Y-9455859D01*
X-916110Y-9455096D01*
X-1512180Y-9378240D01*
X-1520027Y-9376971D01*
X-2109925Y-9262089D01*
X-2117674Y-9260321D01*
X-2699029Y-9107872D01*
X-2706649Y-9105610D01*
X-3277016Y-8916235D01*
X-3284476Y-8913490D01*
X-3841555Y-8687954D01*
X-3848824Y-8684736D01*
X-4390294Y-8423977D01*
X-4397341Y-8420301D01*
X-4921012Y-8125376D01*
X-4927809Y-8121255D01*
X-5431488Y-7793396D01*
X-5438008Y-7788848D01*
X-5919659Y-7429382D01*
X-5925873Y-7424426D01*
X-6383488Y-7034853D01*
X-6389373Y-7029509D01*
X-6821110Y-6611395D01*
X-6826639Y-6605685D01*
X-7230675Y-6160797D01*
X-7235828Y-6154745D01*
X-7610555Y-5684852D01*
X-7615309Y-5678481D01*
X-7959134Y-5185582D01*
X-7963471Y-5178921D01*
X-8275035Y-4664963D01*
X-8278935Y-4658037D01*
X-8556914Y-4125204D01*
X-8560363Y-4118042D01*
X-8803636Y-3568485D01*
X-8806619Y-3561117D01*
X-9014178Y-2997110D01*
X-9016683Y-2989567D01*
X-9187688Y-2413396D01*
X-9189704Y-2405707D01*
X-9323434Y-1819797D01*
X-9324954Y-1811994D01*
X-9420875Y-1218688D01*
X-9421891Y-1210805D01*
X-9427552Y-1152127D01*
X-3700500Y-1152127D01*
X-3700499Y-2147872D01*
X-3694091Y-2207483D01*
X-3643796Y-2342331D01*
X-3557546Y-2457546D01*
X-3442331Y-2543796D01*
X-3307483Y-2594091D01*
X-3247873Y-2600500D01*
X-1652128Y-2600499D01*
X-1603757Y-2595299D01*
X-1592516Y-2594091D01*
X-1457671Y-2543797D01*
X-1457664Y-2543793D01*
X-1371095Y-2478987D01*
X-1342454Y-2457546D01*
X-1336948Y-2450191D01*
X-1281015Y-2408319D01*
X-1237680Y-2400500D01*
X-1212230Y-2400500D01*
X-1145191Y-2420185D01*
X-1124553Y-2436814D01*
X-753304Y-2808061D01*
X-730657Y-2844132D01*
X-728813Y-2843244D01*
X-725792Y-2849515D01*
X-725790Y-2849516D01*
X-725789Y-2849522D01*
X-629816Y-3002262D01*
X-502262Y-3129816D01*
X-349522Y-3225789D01*
X-179255Y-3285368D01*
X-179252Y-3285368D01*
X-179249Y-3285369D01*
X-4Y-3305565D01*
X0Y-3305565D01*
X4Y-3305565D01*
X179249Y-3285369D01*
X179252Y-3285368D01*
X179255Y-3285368D01*
X349522Y-3225789D01*
X502262Y-3129816D01*
X629816Y-3002262D01*
X725789Y-2849522D01*
X785368Y-2679255D01*
X785369Y-2679249D01*
X805565Y-2500003D01*
X805565Y-2499996D01*
X785369Y-2320750D01*
X785368Y-2320745D01*
X725788Y-2150476D01*
X629815Y-1997737D01*
X502262Y-1870184D01*
X349522Y-1774211D01*
X349518Y-1774209D01*
X343244Y-1771188D01*
X344125Y-1769358D01*
X308059Y-1746692D01*
X-286495Y-1152135D01*
X1199500Y-1152135D01*
X1199500Y-2147870D01*
X1199501Y-2147876D01*
X1205908Y-2207483D01*
X1256202Y-2342328D01*
X1256206Y-2342335D01*
X1342452Y-2457544D01*
X1342455Y-2457547D01*
X1457664Y-2543793D01*
X1457671Y-2543797D01*
X1592517Y-2594091D01*
X1592516Y-2594091D01*
X1599444Y-2594835D01*
X1652127Y-2600500D01*
X3247872Y-2600499D01*
X3307483Y-2594091D01*
X3442331Y-2543796D01*
X3442335Y-2543792D01*
X3450118Y-2539544D01*
X3451466Y-2542013D01*
X3503457Y-2522613D01*
X3553277Y-2529255D01*
X3570745Y-2535368D01*
X3570748Y-2535368D01*
X3570750Y-2535369D01*
X3570748Y-2535369D01*
X3749996Y-2555565D01*
X3750000Y-2555565D01*
X3750004Y-2555565D01*
X3929249Y-2535369D01*
X3929252Y-2535368D01*
X3929255Y-2535368D01*
X4099522Y-2475789D01*
X4252262Y-2379816D01*
X4379816Y-2252262D01*
X4475789Y-2099522D01*
X4535368Y-1929255D01*
X4555565Y-1750000D01*
X4555192Y-1746692D01*
X4535369Y-1570750D01*
X4535368Y-1570745D01*
X4475788Y-1400476D01*
X4379815Y-1247737D01*
X4252262Y-1120184D01*
X4099523Y-1024211D01*
X3929254Y-964631D01*
X3929249Y-964630D01*
X3750004Y-944435D01*
X3750003Y-944435D01*
X3750001Y-944435D01*
X3750000Y-944435D01*
X3721995Y-947590D01*
X3713501Y-948547D01*
X3644679Y-936490D01*
X3600354Y-899638D01*
X3557548Y-842457D01*
X3557546Y-842454D01*
X3557544Y-842453D01*
X3557544Y-842452D01*
X3442335Y-756206D01*
X3442328Y-756202D01*
X3307482Y-705908D01*
X3307483Y-705908D01*
X3247883Y-699501D01*
X3247881Y-699500D01*
X3247873Y-699500D01*
X3247864Y-699500D01*
X1652129Y-699500D01*
X1652123Y-699501D01*
X1592516Y-705908D01*
X1457671Y-756202D01*
X1457664Y-756206D01*
X1342455Y-842452D01*
X1342452Y-842455D01*
X1256206Y-957664D01*
X1256202Y-957671D01*
X1205908Y-1092517D01*
X1199501Y-1152116D01*
X1199500Y-1152135D01*
X-286495Y-1152135D01*
X-371580Y-1067050D01*
X-371588Y-1067044D01*
X-445269Y-1017813D01*
X-494496Y-984921D01*
X-494508Y-984914D01*
X-631086Y-928342D01*
X-631092Y-928340D01*
X-776080Y-899500D01*
X-776082Y-899500D01*
X-1237680Y-899500D01*
X-1304719Y-879815D01*
X-1336948Y-849809D01*
X-1342451Y-842457D01*
X-1342457Y-842451D01*
X-1457664Y-756206D01*
X-1457671Y-756202D01*
X-1592517Y-705908D01*
X-1592516Y-705908D01*
X-1652116Y-699501D01*
X-1652119Y-699500D01*
X-1652127Y-699500D01*
X-1652134Y-699500D01*
X-1652135Y-699500D01*
X-3247870Y-699500D01*
X-3247876Y-699501D01*
X-3307483Y-705908D01*
X-3442328Y-756202D01*
X-3442335Y-756206D01*
X-3557544Y-842452D01*
X-3557547Y-842455D01*
X-3643793Y-957664D01*
X-3643797Y-957671D01*
X-3666228Y-1017813D01*
X-3694091Y-1092517D01*
X-3700500Y-1152127D01*
X-9427552Y-1152127D01*
X-9479600Y-612588D01*
X-9480109Y-604655D01*
X-9499372Y-3974D01*
X-9499372Y3974D01*
X-9480109Y604655D01*
X-9479600Y612588D01*
X-9421891Y1210805D01*
X-9420875Y1218688D01*
X-9324954Y1811994D01*
X-9323434Y1819797D01*
X-9248553Y2147873D01*
X-3700500Y2147873D01*
X-3700499Y1152128D01*
X-3695299Y1103757D01*
X-3694091Y1092516D01*
X-3643797Y957671D01*
X-3643793Y957664D01*
X-3557547Y842455D01*
X-3557544Y842452D01*
X-3442335Y756206D01*
X-3442328Y756202D01*
X-3307482Y705908D01*
X-3307483Y705908D01*
X-3247883Y699501D01*
X-3247881Y699500D01*
X-3247873Y699500D01*
X-3247864Y699500D01*
X-1652129Y699500D01*
X-1652123Y699501D01*
X-1592516Y705908D01*
X-1457671Y756202D01*
X-1457664Y756206D01*
X-1342455Y842452D01*
X-1342452Y842455D01*
X-1256206Y957664D01*
X-1256202Y957671D01*
X-1205908Y1092517D01*
X-1199501Y1152116D01*
X-1199500Y1152119D01*
X-1199500Y1152127D01*
X-1199500Y1152155D01*
X1200000Y1152155D01*
X1206401Y1092627D01*
X1206403Y1092620D01*
X1256645Y957913D01*
X1256649Y957906D01*
X1342809Y842812D01*
X1342812Y842809D01*
X1457906Y756649D01*
X1457913Y756645D01*
X1592620Y706403D01*
X1592627Y706401D01*
X1652155Y700000D01*
X2200000Y700000D01*
X2700000Y700000D01*
X3247844Y700000D01*
X3307372Y706401D01*
X3307379Y706403D01*
X3442086Y756645D01*
X3442093Y756649D01*
X3557187Y842809D01*
X3557190Y842812D01*
X3643350Y957906D01*
X3643354Y957913D01*
X3693596Y1092620D01*
X3693598Y1092627D01*
X3699999Y1152155D01*
X3700000Y1152172D01*
X3700000Y1400000D01*
X2700000Y1400000D01*
X2700000Y700000D01*
X2200000Y700000D01*
X2200000Y1400000D01*
X1200000Y1400000D01*
X1200000Y1152155D01*
X-1199500Y1152155D01*
X-1199500Y1400000D01*
X-1199500Y2147844D01*
X1200000Y2147844D01*
X1200000Y1900000D01*
X2200000Y1900000D01*
X2700000Y1900000D01*
X3700000Y1900000D01*
X3700000Y2147827D01*
X3699999Y2147844D01*
X3693598Y2207372D01*
X3693596Y2207379D01*
X3643354Y2342086D01*
X3643350Y2342093D01*
X3557190Y2457187D01*
X3557187Y2457190D01*
X3442093Y2543350D01*
X3442086Y2543354D01*
X3307379Y2593596D01*
X3307372Y2593598D01*
X3247844Y2599999D01*
X3247828Y2600000D01*
X2700000Y2600000D01*
X2700000Y1900000D01*
X2200000Y1900000D01*
X2200000Y2600000D01*
X1652172Y2600000D01*
X1652155Y2599999D01*
X1592627Y2593598D01*
X1592620Y2593596D01*
X1457913Y2543354D01*
X1457906Y2543350D01*
X1342812Y2457190D01*
X1342809Y2457187D01*
X1256649Y2342093D01*
X1256645Y2342086D01*
X1206403Y2207379D01*
X1206401Y2207372D01*
X1200000Y2147844D01*
X-1199500Y2147844D01*
X-1199500Y2147870D01*
X-1199501Y2147876D01*
X-1205908Y2207483D01*
X-1256202Y2342328D01*
X-1256206Y2342335D01*
X-1342452Y2457544D01*
X-1342455Y2457547D01*
X-1457664Y2543793D01*
X-1457671Y2543797D01*
X-1592517Y2594091D01*
X-1592516Y2594091D01*
X-1598925Y2594779D01*
X-1652127Y2600500D01*
X-3247872Y2600499D01*
X-3307483Y2594091D01*
X-3442331Y2543796D01*
X-3557546Y2457546D01*
X-3643796Y2342331D01*
X-3694091Y2207483D01*
X-3700500Y2147873D01*
X-9248553Y2147873D01*
X-9189704Y2405707D01*
X-9187688Y2413396D01*
X-9016683Y2989567D01*
X-9014178Y2997110D01*
X-8806619Y3561117D01*
X-8803636Y3568485D01*
X-8560363Y4118042D01*
X-8556914Y4125204D01*
X-8278935Y4658037D01*
X-8275035Y4664963D01*
X-7963471Y5178921D01*
X-7959134Y5185582D01*
X-7615309Y5678481D01*
X-7610555Y5684852D01*
X-7235828Y6154745D01*
X-7230675Y6160797D01*
X-6826639Y6605685D01*
X-6821110Y6611395D01*
X-6389373Y7029509D01*
X-6383488Y7034853D01*
X-5925873Y7424426D01*
X-5919659Y7429382D01*
X-5438008Y7788848D01*
X-5431488Y7793396D01*
X-4927809Y8121255D01*
X-4921012Y8125376D01*
X-4397341Y8420301D01*
X-4390294Y8423977D01*
X-3848824Y8684736D01*
X-3841555Y8687954D01*
X-3284476Y8913490D01*
X-3277016Y8916235D01*
X-2706649Y9105610D01*
X-2699029Y9107872D01*
X-2117674Y9260321D01*
X-2109925Y9262089D01*
X-1520027Y9376971D01*
X-1512180Y9378240D01*
X-916110Y9455096D01*
X-908198Y9455859D01*
X-308446Y9494364D01*
X-300501Y9494619D01*
X300501Y9494619D01*
X308446Y9494364D01*
G37*
%TD.AperFunction*%
%TD*%
M02*
