%TF.GenerationSoftware,KiCad,Pcbnew,8.0.2-1*%
%TF.CreationDate,2024-10-03T17:15:38-04:00*%
%TF.ProjectId,lightPixel,6c696768-7450-4697-9865-6c2e6b696361,rev?*%
%TF.SameCoordinates,Original*%
%TF.FileFunction,Legend,Top*%
%TF.FilePolarity,Positive*%
%FSLAX46Y46*%
G04 Gerber Fmt 4.6, Leading zero omitted, Abs format (unit mm)*
G04 Created by KiCad (PCBNEW 8.0.2-1) date 2024-10-03 17:15:38*
%MOMM*%
%LPD*%
G01*
G04 APERTURE LIST*
%ADD10C,0.150000*%
%ADD11C,0.120000*%
G04 APERTURE END LIST*
D10*
X-2761904Y-6954819D02*
X-2761904Y-7764342D01*
X-2761904Y-7764342D02*
X-2714285Y-7859580D01*
X-2714285Y-7859580D02*
X-2666666Y-7907200D01*
X-2666666Y-7907200D02*
X-2571428Y-7954819D01*
X-2571428Y-7954819D02*
X-2380952Y-7954819D01*
X-2380952Y-7954819D02*
X-2285714Y-7907200D01*
X-2285714Y-7907200D02*
X-2238095Y-7859580D01*
X-2238095Y-7859580D02*
X-2190476Y-7764342D01*
X-2190476Y-7764342D02*
X-2190476Y-6954819D01*
X-1190476Y-7954819D02*
X-1761904Y-7954819D01*
X-1476190Y-7954819D02*
X-1476190Y-6954819D01*
X-1476190Y-6954819D02*
X-1571428Y-7097676D01*
X-1571428Y-7097676D02*
X-1666666Y-7192914D01*
X-1666666Y-7192914D02*
X-1761904Y-7240533D01*
X2833333Y-7454819D02*
X2500000Y-6978628D01*
X2261905Y-7454819D02*
X2261905Y-6454819D01*
X2261905Y-6454819D02*
X2642857Y-6454819D01*
X2642857Y-6454819D02*
X2738095Y-6502438D01*
X2738095Y-6502438D02*
X2785714Y-6550057D01*
X2785714Y-6550057D02*
X2833333Y-6645295D01*
X2833333Y-6645295D02*
X2833333Y-6788152D01*
X2833333Y-6788152D02*
X2785714Y-6883390D01*
X2785714Y-6883390D02*
X2738095Y-6931009D01*
X2738095Y-6931009D02*
X2642857Y-6978628D01*
X2642857Y-6978628D02*
X2261905Y-6978628D01*
X3785714Y-7454819D02*
X3214286Y-7454819D01*
X3500000Y-7454819D02*
X3500000Y-6454819D01*
X3500000Y-6454819D02*
X3404762Y-6597676D01*
X3404762Y-6597676D02*
X3309524Y-6692914D01*
X3309524Y-6692914D02*
X3214286Y-6740533D01*
X-5083333Y-704819D02*
X-5083333Y-1419104D01*
X-5083333Y-1419104D02*
X-5130952Y-1561961D01*
X-5130952Y-1561961D02*
X-5226190Y-1657200D01*
X-5226190Y-1657200D02*
X-5369047Y-1704819D01*
X-5369047Y-1704819D02*
X-5464285Y-1704819D01*
X-4083333Y-1704819D02*
X-4654761Y-1704819D01*
X-4369047Y-1704819D02*
X-4369047Y-704819D01*
X-4369047Y-704819D02*
X-4464285Y-847676D01*
X-4464285Y-847676D02*
X-4559523Y-942914D01*
X-4559523Y-942914D02*
X-4654761Y-990533D01*
D11*
%TO.C,U1*%
X-2880000Y-6560000D02*
X-1120000Y-6560000D01*
X-1920000Y-3490000D02*
X-2720000Y-3490000D01*
X-1920000Y-3490000D02*
X-1120000Y-3490000D01*
X-3220000Y-3540000D02*
X-3460000Y-3210000D01*
X-2980000Y-3210000D01*
X-3220000Y-3540000D01*
G36*
X-3220000Y-3540000D02*
G01*
X-3460000Y-3210000D01*
X-2980000Y-3210000D01*
X-3220000Y-3540000D01*
G37*
%TO.C,R1*%
X3522936Y-4265000D02*
X3977064Y-4265000D01*
X3522936Y-5735000D02*
X3977064Y-5735000D01*
%TO.C,J1*%
X-5060000Y3790000D02*
X-5060000Y-460000D01*
X-5060000Y-460000D02*
X-4040000Y-460000D01*
X-4040000Y1140000D02*
X-2760000Y1140000D01*
X-4040000Y-460000D02*
X-4040000Y1140000D01*
X2760000Y1140000D02*
X2760000Y-1750000D01*
X3340000Y7360000D02*
X-3340000Y7360000D01*
X4040000Y1140000D02*
X2760000Y1140000D01*
X4040000Y-460000D02*
X4040000Y1140000D01*
X5060000Y3790000D02*
X5060000Y-460000D01*
X5060000Y-460000D02*
X4040000Y-460000D01*
%TD*%
M02*
