G04 #@! TF.GenerationSoftware,KiCad,Pcbnew,8.0.5+1*
G04 #@! TF.CreationDate,2024-11-11T14:56:05+00:00*
G04 #@! TF.ProjectId,lightPixel,6c696768-7450-4697-9865-6c2e6b696361,rev?*
G04 #@! TF.SameCoordinates,Original*
G04 #@! TF.FileFunction,Copper,L1,Top*
G04 #@! TF.FilePolarity,Positive*
%FSLAX46Y46*%
G04 Gerber Fmt 4.6, Leading zero omitted, Abs format (unit mm)*
G04 Created by KiCad (PCBNEW 8.0.5+1) date 2024-11-11 14:56:05*
%MOMM*%
%LPD*%
G01*
G04 APERTURE LIST*
G04 Aperture macros list*
%AMRoundRect*
0 Rectangle with rounded corners*
0 $1 Rounding radius*
0 $2 $3 $4 $5 $6 $7 $8 $9 X,Y pos of 4 corners*
0 Add a 4 corners polygon primitive as box body*
4,1,4,$2,$3,$4,$5,$6,$7,$8,$9,$2,$3,0*
0 Add four circle primitives for the rounded corners*
1,1,$1+$1,$2,$3*
1,1,$1+$1,$4,$5*
1,1,$1+$1,$6,$7*
1,1,$1+$1,$8,$9*
0 Add four rect primitives between the rounded corners*
20,1,$1+$1,$2,$3,$4,$5,0*
20,1,$1+$1,$4,$5,$6,$7,0*
20,1,$1+$1,$6,$7,$8,$9,0*
20,1,$1+$1,$8,$9,$2,$3,0*%
G04 Aperture macros list end*
G04 #@! TA.AperFunction,SMDPad,CuDef*
%ADD10RoundRect,0.162500X-0.837500X-0.162500X0.837500X-0.162500X0.837500X0.162500X-0.837500X0.162500X0*%
G04 #@! TD*
G04 #@! TA.AperFunction,SMDPad,CuDef*
%ADD11RoundRect,0.250000X-0.262500X-0.450000X0.262500X-0.450000X0.262500X0.450000X-0.262500X0.450000X0*%
G04 #@! TD*
G04 #@! TA.AperFunction,SMDPad,CuDef*
%ADD12RoundRect,0.250000X0.250000X1.500000X-0.250000X1.500000X-0.250000X-1.500000X0.250000X-1.500000X0*%
G04 #@! TD*
G04 #@! TA.AperFunction,SMDPad,CuDef*
%ADD13RoundRect,0.250001X0.499999X1.449999X-0.499999X1.449999X-0.499999X-1.449999X0.499999X-1.449999X0*%
G04 #@! TD*
G04 #@! TA.AperFunction,ViaPad*
%ADD14C,0.600000*%
G04 #@! TD*
G04 #@! TA.AperFunction,Conductor*
%ADD15C,0.500000*%
G04 #@! TD*
G04 APERTURE END LIST*
D10*
X-3710000Y-4050000D03*
X-3710000Y-5000000D03*
X-3710000Y-5950000D03*
X-290000Y-5950000D03*
X-290000Y-5000000D03*
X-290000Y-4050000D03*
D11*
X2837500Y-5000000D03*
X4662500Y-5000000D03*
D12*
X2000000Y0D03*
X0Y0D03*
X-2000000Y0D03*
D13*
X4350000Y5750000D03*
X-4350000Y5750000D03*
D14*
X0Y-2500000D03*
X3750000Y-1750000D03*
X3250000Y250000D03*
D15*
X0Y-2500000D02*
X0Y0D01*
X-290000Y-5000000D02*
X-1500000Y-5000000D01*
X-930354Y-2500000D02*
X0Y-2500000D01*
X-1500000Y-5000000D02*
X-2000000Y-4500000D01*
X-2000000Y-3569646D02*
X-930354Y-2500000D01*
X-2000000Y-4500000D02*
X-2000000Y-3569646D01*
X4662500Y-2662500D02*
X4662500Y-5000000D01*
X3750000Y-1750000D02*
X4662500Y-2662500D01*
X-3710000Y-4050000D02*
X-3710000Y-2960000D01*
X-3710000Y-2960000D02*
X-2000000Y-1250000D01*
X-2000000Y-1250000D02*
X-2000000Y0D01*
X-290000Y-4050000D02*
X1887500Y-4050000D01*
X1887500Y-4050000D02*
X2837500Y-5000000D01*
G04 #@! TA.AperFunction,Conductor*
G36*
X308446Y9494364D02*
G01*
X908198Y9455859D01*
X916110Y9455096D01*
X1512180Y9378240D01*
X1520027Y9376971D01*
X2109925Y9262089D01*
X2117674Y9260321D01*
X2699029Y9107872D01*
X2706649Y9105610D01*
X3277016Y8916235D01*
X3284476Y8913490D01*
X3841555Y8687954D01*
X3848824Y8684736D01*
X4390294Y8423977D01*
X4397341Y8420301D01*
X4820393Y8182044D01*
X4869146Y8131995D01*
X4883101Y8063533D01*
X4857828Y7998394D01*
X4801351Y7957260D01*
X4759544Y7950000D01*
X4600000Y7950000D01*
X4600000Y6000000D01*
X5600000Y6000000D01*
X5600000Y7249972D01*
X5599999Y7249985D01*
X5589506Y7352689D01*
X5589504Y7352698D01*
X5571231Y7407842D01*
X5568828Y7477671D01*
X5604559Y7537713D01*
X5667079Y7568906D01*
X5736538Y7561347D01*
X5763101Y7546223D01*
X5919658Y7429382D01*
X5925873Y7424426D01*
X6383488Y7034853D01*
X6389373Y7029509D01*
X6821110Y6611395D01*
X6826639Y6605685D01*
X7230675Y6160797D01*
X7235828Y6154745D01*
X7610555Y5684852D01*
X7615309Y5678481D01*
X7959134Y5185582D01*
X7963471Y5178921D01*
X8275035Y4664963D01*
X8278935Y4658037D01*
X8556914Y4125204D01*
X8560363Y4118042D01*
X8803636Y3568485D01*
X8806619Y3561117D01*
X9014178Y2997110D01*
X9016683Y2989567D01*
X9187688Y2413396D01*
X9189704Y2405707D01*
X9323434Y1819797D01*
X9324954Y1811994D01*
X9420875Y1218688D01*
X9421891Y1210805D01*
X9479600Y612588D01*
X9480109Y604655D01*
X9499372Y3974D01*
X9499372Y-3974D01*
X9480109Y-604655D01*
X9479600Y-612588D01*
X9421891Y-1210805D01*
X9420875Y-1218688D01*
X9324954Y-1811994D01*
X9323434Y-1819797D01*
X9189704Y-2405707D01*
X9187688Y-2413396D01*
X9016683Y-2989567D01*
X9014178Y-2997110D01*
X8806619Y-3561117D01*
X8803636Y-3568485D01*
X8560363Y-4118042D01*
X8556914Y-4125204D01*
X8278935Y-4658037D01*
X8275035Y-4664963D01*
X7963471Y-5178921D01*
X7959134Y-5185582D01*
X7615309Y-5678481D01*
X7610555Y-5684852D01*
X7235828Y-6154745D01*
X7230675Y-6160797D01*
X6826639Y-6605685D01*
X6821110Y-6611395D01*
X6389373Y-7029509D01*
X6383488Y-7034853D01*
X5925873Y-7424426D01*
X5919659Y-7429382D01*
X5438008Y-7788848D01*
X5431488Y-7793396D01*
X4927809Y-8121255D01*
X4921012Y-8125376D01*
X4397341Y-8420301D01*
X4390294Y-8423977D01*
X3848824Y-8684736D01*
X3841555Y-8687954D01*
X3284476Y-8913490D01*
X3277016Y-8916235D01*
X2706649Y-9105610D01*
X2699029Y-9107872D01*
X2117674Y-9260321D01*
X2109925Y-9262089D01*
X1520027Y-9376971D01*
X1512180Y-9378240D01*
X916110Y-9455096D01*
X908198Y-9455859D01*
X308446Y-9494364D01*
X300501Y-9494619D01*
X-300501Y-9494619D01*
X-308446Y-9494364D01*
X-908198Y-9455859D01*
X-916110Y-9455096D01*
X-1512180Y-9378240D01*
X-1520027Y-9376971D01*
X-2109925Y-9262089D01*
X-2117674Y-9260321D01*
X-2699029Y-9107872D01*
X-2706649Y-9105610D01*
X-3277016Y-8916235D01*
X-3284476Y-8913490D01*
X-3841555Y-8687954D01*
X-3848824Y-8684736D01*
X-4390294Y-8423977D01*
X-4397341Y-8420301D01*
X-4921012Y-8125376D01*
X-4927809Y-8121255D01*
X-5431488Y-7793396D01*
X-5438008Y-7788848D01*
X-5919659Y-7429382D01*
X-5925873Y-7424426D01*
X-6383488Y-7034853D01*
X-6389373Y-7029509D01*
X-6821110Y-6611395D01*
X-6826639Y-6605685D01*
X-7230675Y-6160797D01*
X-7235828Y-6154745D01*
X-7610555Y-5684852D01*
X-7615309Y-5678481D01*
X-7959134Y-5185582D01*
X-7963471Y-5178921D01*
X-8275035Y-4664963D01*
X-8278935Y-4658037D01*
X-8556914Y-4125204D01*
X-8560363Y-4118042D01*
X-8686140Y-3833909D01*
X-5210500Y-3833909D01*
X-5210499Y-4050951D01*
X-5210499Y-4266098D01*
X-5204431Y-4332882D01*
X-5204430Y-4332885D01*
X-5204430Y-4332887D01*
X-5184389Y-4397203D01*
X-5155799Y-4488950D01*
X-5154647Y-4558810D01*
X-5155799Y-4562732D01*
X-5203933Y-4717200D01*
X-5203935Y-4717207D01*
X-5206914Y-4749999D01*
X-5206915Y-4750000D01*
X-4974496Y-4750000D01*
X-4910346Y-4767882D01*
X-4821602Y-4821531D01*
X-4667887Y-4869430D01*
X-4601091Y-4875500D01*
X-3583998Y-4875499D01*
X-3516961Y-4895183D01*
X-3471206Y-4947987D01*
X-3460000Y-4999499D01*
X-3460000Y-5000500D01*
X-3479685Y-5067539D01*
X-3532489Y-5113294D01*
X-3584000Y-5124500D01*
X-4601098Y-5124500D01*
X-4667882Y-5130568D01*
X-4667893Y-5130571D01*
X-4821598Y-5178467D01*
X-4821600Y-5178468D01*
X-4821602Y-5178469D01*
X-4833368Y-5185582D01*
X-4910346Y-5232117D01*
X-4974496Y-5250000D01*
X-5206914Y-5250000D01*
X-5203935Y-5282792D01*
X-5203933Y-5282799D01*
X-5155799Y-5437267D01*
X-5154647Y-5507127D01*
X-5155798Y-5511048D01*
X-5156529Y-5513395D01*
X-5156531Y-5513398D01*
X-5204430Y-5667113D01*
X-5210500Y-5733909D01*
X-5210499Y-6042710D01*
X-5210499Y-6166098D01*
X-5204431Y-6232882D01*
X-5204430Y-6232885D01*
X-5204430Y-6232887D01*
X-5156531Y-6386602D01*
X-5073236Y-6524388D01*
X-4959388Y-6638236D01*
X-4821602Y-6721531D01*
X-4667887Y-6769430D01*
X-4601091Y-6775500D01*
X-2818910Y-6775499D01*
X-2818902Y-6775499D01*
X-2752117Y-6769431D01*
X-2752106Y-6769428D01*
X-2598401Y-6721532D01*
X-2598400Y-6721531D01*
X-2598398Y-6721531D01*
X-2460612Y-6638236D01*
X-2460610Y-6638234D01*
X-2460608Y-6638233D01*
X-2346766Y-6524391D01*
X-2263469Y-6386602D01*
X-2215569Y-6232883D01*
X-2209500Y-6166088D01*
X-2209500Y-5733901D01*
X-2215569Y-5667109D01*
X-2215609Y-5666911D01*
X-2215598Y-5666792D01*
X-2216163Y-5660578D01*
X-2215031Y-5660475D01*
X-2209369Y-5597320D01*
X-2166496Y-5542151D01*
X-2100602Y-5518918D01*
X-2032608Y-5534998D01*
X-2006315Y-5555052D01*
X-1978416Y-5582952D01*
X-1904729Y-5632186D01*
X-1855495Y-5665084D01*
X-1855491Y-5665085D01*
X-1850428Y-5668469D01*
X-1851172Y-5669583D01*
X-1806215Y-5713726D01*
X-1790499Y-5774142D01*
X-1790499Y-6042710D01*
X-1790499Y-6166098D01*
X-1784431Y-6232882D01*
X-1784430Y-6232885D01*
X-1784430Y-6232887D01*
X-1736531Y-6386602D01*
X-1653236Y-6524388D01*
X-1539388Y-6638236D01*
X-1401602Y-6721531D01*
X-1247887Y-6769430D01*
X-1181091Y-6775500D01*
X601090Y-6775499D01*
X601097Y-6775499D01*
X667882Y-6769431D01*
X667885Y-6769430D01*
X667887Y-6769430D01*
X821602Y-6721531D01*
X959388Y-6638236D01*
X1073236Y-6524388D01*
X1156531Y-6386602D01*
X1204430Y-6232887D01*
X1210500Y-6166091D01*
X1210499Y-5733910D01*
X1210499Y-5733909D01*
X1210499Y-5733901D01*
X1204431Y-5667117D01*
X1204429Y-5667109D01*
X1156061Y-5511890D01*
X1154909Y-5442029D01*
X1156061Y-5438109D01*
X1175536Y-5375612D01*
X1204430Y-5282887D01*
X1210500Y-5216091D01*
X1210499Y-4924498D01*
X1230183Y-4857461D01*
X1282987Y-4811706D01*
X1334499Y-4800500D01*
X1525270Y-4800500D01*
X1592309Y-4820185D01*
X1612951Y-4836819D01*
X1788181Y-5012049D01*
X1821666Y-5073372D01*
X1824500Y-5099730D01*
X1824500Y-5500001D01*
X1824501Y-5500019D01*
X1835000Y-5602796D01*
X1835001Y-5602799D01*
X1878448Y-5733911D01*
X1890186Y-5769334D01*
X1982288Y-5918656D01*
X2106344Y-6042712D01*
X2255666Y-6134814D01*
X2422203Y-6189999D01*
X2524991Y-6200500D01*
X3150008Y-6200499D01*
X3150016Y-6200498D01*
X3150019Y-6200498D01*
X3206302Y-6194748D01*
X3252797Y-6189999D01*
X3419334Y-6134814D01*
X3568656Y-6042712D01*
X3662319Y-5949049D01*
X3723642Y-5915564D01*
X3793334Y-5920548D01*
X3837681Y-5949049D01*
X3931344Y-6042712D01*
X4080666Y-6134814D01*
X4247203Y-6189999D01*
X4349991Y-6200500D01*
X4975008Y-6200499D01*
X4975016Y-6200498D01*
X4975019Y-6200498D01*
X5031302Y-6194748D01*
X5077797Y-6189999D01*
X5244334Y-6134814D01*
X5393656Y-6042712D01*
X5517712Y-5918656D01*
X5609814Y-5769334D01*
X5664999Y-5602797D01*
X5675500Y-5500009D01*
X5675499Y-4499992D01*
X5664999Y-4397203D01*
X5609814Y-4230666D01*
X5517712Y-4081344D01*
X5449319Y-4012951D01*
X5415834Y-3951628D01*
X5413000Y-3925270D01*
X5413000Y-2588579D01*
X5384159Y-2443592D01*
X5384158Y-2443591D01*
X5384158Y-2443587D01*
X5327584Y-2307005D01*
X5275073Y-2228416D01*
X5275073Y-2228415D01*
X5256105Y-2200028D01*
X5245452Y-2184084D01*
X4503307Y-1441939D01*
X4480653Y-1405869D01*
X4478813Y-1406756D01*
X4475792Y-1400484D01*
X4475789Y-1400480D01*
X4475789Y-1400478D01*
X4379816Y-1247738D01*
X4252262Y-1120184D01*
X4170103Y-1068560D01*
X4099523Y-1024211D01*
X3929254Y-964631D01*
X3929249Y-964630D01*
X3750004Y-944435D01*
X3749996Y-944435D01*
X3570750Y-964630D01*
X3570745Y-964631D01*
X3400476Y-1024211D01*
X3247737Y-1120184D01*
X3211679Y-1156242D01*
X3150356Y-1189727D01*
X3080664Y-1184741D01*
X3024731Y-1142869D01*
X3000315Y-1077405D01*
X2999999Y-1068560D01*
X3000000Y-250000D01*
X2250000Y-250000D01*
X2250000Y-2249999D01*
X2299972Y-2249999D01*
X2299986Y-2249998D01*
X2402697Y-2239505D01*
X2569119Y-2184358D01*
X2569124Y-2184356D01*
X2718342Y-2092317D01*
X2803513Y-2007146D01*
X2864836Y-1973661D01*
X2934528Y-1978645D01*
X2990462Y-2020516D01*
X3008236Y-2053872D01*
X3024208Y-2099519D01*
X3112168Y-2239505D01*
X3120184Y-2252262D01*
X3247738Y-2379816D01*
X3400478Y-2475789D01*
X3400480Y-2475789D01*
X3400484Y-2475792D01*
X3406756Y-2478813D01*
X3405869Y-2480653D01*
X3441939Y-2503307D01*
X3875681Y-2937049D01*
X3909166Y-2998372D01*
X3912000Y-3024730D01*
X3912000Y-3925270D01*
X3892315Y-3992309D01*
X3875681Y-4012951D01*
X3837681Y-4050951D01*
X3776358Y-4084436D01*
X3706666Y-4079452D01*
X3662319Y-4050951D01*
X3568657Y-3957289D01*
X3568656Y-3957288D01*
X3419334Y-3865186D01*
X3252797Y-3810001D01*
X3252795Y-3810000D01*
X3150016Y-3799500D01*
X3150009Y-3799500D01*
X2749730Y-3799500D01*
X2682691Y-3779815D01*
X2662049Y-3763181D01*
X2365921Y-3467052D01*
X2365914Y-3467046D01*
X2285125Y-3413065D01*
X2285026Y-3413000D01*
X2242995Y-3384916D01*
X2242994Y-3384915D01*
X2242992Y-3384914D01*
X2106417Y-3328343D01*
X2106407Y-3328340D01*
X1961420Y-3299500D01*
X1961418Y-3299500D01*
X890959Y-3299500D01*
X826811Y-3281618D01*
X821602Y-3278469D01*
X667887Y-3230570D01*
X667882Y-3230569D01*
X661623Y-3228619D01*
X662441Y-3225992D01*
X611306Y-3199234D01*
X576742Y-3138513D01*
X580493Y-3068744D01*
X609742Y-3022335D01*
X629816Y-3002262D01*
X725789Y-2849522D01*
X785368Y-2679255D01*
X793790Y-2604507D01*
X805565Y-2500003D01*
X805565Y-2499996D01*
X785368Y-2320747D01*
X785368Y-2320745D01*
X757458Y-2240982D01*
X750500Y-2200028D01*
X750500Y-2112230D01*
X770185Y-2045191D01*
X786819Y-2024549D01*
X804222Y-2007146D01*
X842712Y-1968656D01*
X894755Y-1884279D01*
X946701Y-1837556D01*
X1015664Y-1826333D01*
X1079746Y-1854176D01*
X1105831Y-1884280D01*
X1157680Y-1968340D01*
X1157683Y-1968344D01*
X1281654Y-2092315D01*
X1430875Y-2184356D01*
X1430880Y-2184358D01*
X1597302Y-2239505D01*
X1597309Y-2239506D01*
X1700019Y-2249999D01*
X1749999Y-2249998D01*
X1750000Y-2249998D01*
X1750000Y2249998D01*
X2250000Y2249998D01*
X2250000Y250000D01*
X2999999Y250000D01*
X2999999Y1549971D01*
X2999998Y1549986D01*
X2989505Y1652697D01*
X2934358Y1819119D01*
X2934356Y1819124D01*
X2842315Y1968345D01*
X2718345Y2092315D01*
X2569124Y2184356D01*
X2569119Y2184358D01*
X2402697Y2239505D01*
X2402690Y2239506D01*
X2299980Y2249999D01*
X2250000Y2249998D01*
X1750000Y2249998D01*
X1750000Y2249999D01*
X1700028Y2249999D01*
X1700013Y2249998D01*
X1597302Y2239505D01*
X1430880Y2184358D01*
X1430875Y2184356D01*
X1281654Y2092315D01*
X1157683Y1968344D01*
X1157680Y1968340D01*
X1105831Y1884280D01*
X1053883Y1837555D01*
X984921Y1826334D01*
X920839Y1854177D01*
X894755Y1884280D01*
X842712Y1968656D01*
X718656Y2092712D01*
X569334Y2184814D01*
X402797Y2239999D01*
X300009Y2250500D01*
X-300008Y2250499D01*
X-300016Y2250498D01*
X-300019Y2250498D01*
X-356302Y2244748D01*
X-402797Y2239999D01*
X-569334Y2184814D01*
X-718656Y2092712D01*
X-842712Y1968656D01*
X-894461Y1884757D01*
X-946409Y1838032D01*
X-1015371Y1826809D01*
X-1079454Y1854653D01*
X-1105539Y1884757D01*
X-1157287Y1968655D01*
X-1281342Y2092710D01*
X-1281344Y2092712D01*
X-1430666Y2184814D01*
X-1597203Y2239999D01*
X-1699991Y2250500D01*
X-2300008Y2250499D01*
X-2300016Y2250498D01*
X-2300019Y2250498D01*
X-2356302Y2244748D01*
X-2402797Y2239999D01*
X-2569334Y2184814D01*
X-2718656Y2092712D01*
X-2842712Y1968656D01*
X-2934814Y1819334D01*
X-2989999Y1652797D01*
X-3000500Y1550009D01*
X-3000499Y3974D01*
X-3000499Y-1137769D01*
X-3020184Y-1204808D01*
X-3036818Y-1225450D01*
X-4292952Y-2481584D01*
X-4292956Y-2481589D01*
X-4342185Y-2555268D01*
X-4342186Y-2555270D01*
X-4364444Y-2588582D01*
X-4375085Y-2604507D01*
X-4375086Y-2604509D01*
X-4431656Y-2741082D01*
X-4431658Y-2741087D01*
X-4431658Y-2741091D01*
X-4431659Y-2741092D01*
X-4460500Y-2886079D01*
X-4460500Y-3100500D01*
X-4480185Y-3167539D01*
X-4532989Y-3213294D01*
X-4584494Y-3224500D01*
X-4601098Y-3224500D01*
X-4667882Y-3230568D01*
X-4667893Y-3230571D01*
X-4821598Y-3278467D01*
X-4821600Y-3278468D01*
X-4821602Y-3278469D01*
X-4904103Y-3328343D01*
X-4959391Y-3361766D01*
X-5073233Y-3475608D01*
X-5073234Y-3475610D01*
X-5073236Y-3475612D01*
X-5156531Y-3613398D01*
X-5204430Y-3767113D01*
X-5210500Y-3833909D01*
X-8686140Y-3833909D01*
X-8803636Y-3568485D01*
X-8806619Y-3561117D01*
X-9014178Y-2997110D01*
X-9016683Y-2989567D01*
X-9187688Y-2413396D01*
X-9189704Y-2405707D01*
X-9323434Y-1819797D01*
X-9324954Y-1811994D01*
X-9420875Y-1218688D01*
X-9421891Y-1210805D01*
X-9479600Y-612588D01*
X-9480109Y-604655D01*
X-9499372Y-3974D01*
X-9499372Y3974D01*
X-9480109Y604655D01*
X-9479600Y612588D01*
X-9421891Y1210805D01*
X-9420875Y1218688D01*
X-9324954Y1811994D01*
X-9323434Y1819797D01*
X-9189704Y2405707D01*
X-9187688Y2413396D01*
X-9016683Y2989567D01*
X-9014178Y2997110D01*
X-8806619Y3561117D01*
X-8803636Y3568485D01*
X-8560363Y4118042D01*
X-8556914Y4125204D01*
X-8491794Y4250027D01*
X-5600000Y4250027D01*
X-5599999Y4250014D01*
X-5589506Y4147310D01*
X-5589505Y4147303D01*
X-5534358Y3980881D01*
X-5534356Y3980876D01*
X-5442315Y3831655D01*
X-5318344Y3707684D01*
X-5169123Y3615643D01*
X-5169118Y3615641D01*
X-5002696Y3560494D01*
X-5002689Y3560493D01*
X-4899985Y3550000D01*
X-4600000Y3550000D01*
X-4100000Y3550000D01*
X-3800014Y3550000D01*
X-3697310Y3560493D01*
X-3697303Y3560494D01*
X-3530881Y3615641D01*
X-3530876Y3615643D01*
X-3381655Y3707684D01*
X-3257684Y3831655D01*
X-3165643Y3980876D01*
X-3165641Y3980881D01*
X-3110494Y4147303D01*
X-3110493Y4147310D01*
X-3100000Y4250014D01*
X3100000Y4250014D01*
X3110493Y4147310D01*
X3110494Y4147303D01*
X3165641Y3980881D01*
X3165643Y3980876D01*
X3257684Y3831655D01*
X3381655Y3707684D01*
X3530876Y3615643D01*
X3530881Y3615641D01*
X3697303Y3560494D01*
X3697310Y3560493D01*
X3800014Y3550000D01*
X4100000Y3550000D01*
X4600000Y3550000D01*
X4899985Y3550000D01*
X5002689Y3560493D01*
X5002696Y3560494D01*
X5169118Y3615641D01*
X5169123Y3615643D01*
X5318344Y3707684D01*
X5442315Y3831655D01*
X5534356Y3980876D01*
X5534358Y3980881D01*
X5589505Y4147303D01*
X5589506Y4147310D01*
X5599999Y4250014D01*
X5600000Y4250027D01*
X5600000Y5500000D01*
X4600000Y5500000D01*
X4600000Y3550000D01*
X4100000Y3550000D01*
X4100000Y5500000D01*
X3100000Y5500000D01*
X3100000Y4250014D01*
X-3100000Y4250014D01*
X-3100000Y5500000D01*
X-4100000Y5500000D01*
X-4100000Y3550000D01*
X-4600000Y3550000D01*
X-4600000Y5500000D01*
X-5600000Y5500000D01*
X-5600000Y4250027D01*
X-8491794Y4250027D01*
X-8278935Y4658037D01*
X-8275035Y4664963D01*
X-7963471Y5178921D01*
X-7959134Y5185582D01*
X-7615309Y5678481D01*
X-7610555Y5684852D01*
X-7235828Y6154745D01*
X-7230675Y6160797D01*
X-6826639Y6605685D01*
X-6821110Y6611395D01*
X-6389373Y7029509D01*
X-6383488Y7034853D01*
X-5925873Y7424426D01*
X-5919658Y7429382D01*
X-5763101Y7546223D01*
X-5697602Y7570545D01*
X-5629350Y7555593D01*
X-5580017Y7506116D01*
X-5565265Y7437821D01*
X-5571231Y7407842D01*
X-5589504Y7352698D01*
X-5589506Y7352689D01*
X-5599999Y7249985D01*
X-5600000Y7249972D01*
X-5600000Y6000000D01*
X-4600000Y6000000D01*
X-4100000Y6000000D01*
X-3100000Y6000000D01*
X-3100000Y7249985D01*
X3100000Y7249985D01*
X3100000Y6000000D01*
X4100000Y6000000D01*
X4100000Y7950000D01*
X3800027Y7950000D01*
X3800014Y7949999D01*
X3697310Y7939506D01*
X3697303Y7939505D01*
X3530881Y7884358D01*
X3530876Y7884356D01*
X3381655Y7792315D01*
X3257684Y7668344D01*
X3165643Y7519123D01*
X3165641Y7519118D01*
X3110494Y7352696D01*
X3110493Y7352689D01*
X3100000Y7249985D01*
X-3100000Y7249985D01*
X-3110493Y7352689D01*
X-3110494Y7352696D01*
X-3165641Y7519118D01*
X-3165643Y7519123D01*
X-3257684Y7668344D01*
X-3381655Y7792315D01*
X-3530876Y7884356D01*
X-3530881Y7884358D01*
X-3697303Y7939505D01*
X-3697310Y7939506D01*
X-3800014Y7949999D01*
X-3800027Y7950000D01*
X-4100000Y7950000D01*
X-4100000Y6000000D01*
X-4600000Y6000000D01*
X-4600000Y7950000D01*
X-4759544Y7950000D01*
X-4826583Y7969685D01*
X-4872338Y8022489D01*
X-4882282Y8091647D01*
X-4853257Y8155203D01*
X-4820393Y8182044D01*
X-4397341Y8420301D01*
X-4390294Y8423977D01*
X-3848824Y8684736D01*
X-3841555Y8687954D01*
X-3284476Y8913490D01*
X-3277016Y8916235D01*
X-2706649Y9105610D01*
X-2699029Y9107872D01*
X-2117674Y9260321D01*
X-2109925Y9262089D01*
X-1520027Y9376971D01*
X-1512180Y9378240D01*
X-916110Y9455096D01*
X-908198Y9455859D01*
X-308446Y9494364D01*
X-300501Y9494619D01*
X300501Y9494619D01*
X308446Y9494364D01*
G37*
G04 #@! TD.AperFunction*
M02*
